HIERARCHY
ROOT root
{
	OFFSET	0	13.1	24.9
	CHANNELS 6  Xposition Yposition Zposition Xrotation Yrotation Zrotation
	JOINT spine_1
	{
		OFFSET	0	9.99999	0
		CHANNELS 3  Xrotation Yrotation Zrotation
		JOINT spine_2
		{
			OFFSET	0	112	-10
			CHANNELS 3  Xrotation Yrotation Zrotation
			JOINT spine_3
			{
				OFFSET	0	206.5	19.3
				CHANNELS 3  Xrotation Yrotation Zrotation
				JOINT spine_4
				{
					OFFSET	0	110.4	14.6
					CHANNELS 3  Xrotation Yrotation Zrotation
					JOINT neck_1
					{
						OFFSET	0	71.8	-50.3
						CHANNELS 3  Xrotation Yrotation Zrotation
						JOINT neck_2
						{
							OFFSET	0	86.2	-25.8
							CHANNELS 3  Xrotation Yrotation Zrotation
							JOINT head_ee
							{
								OFFSET	0	179.8	-8.7
								CHANNELS 3  Xrotation Yrotation Zrotation
								End Site
								{
									OFFSET	1	0	0
								}
							}
						}
					}
					JOINT left_clavicle
					{
						OFFSET	-43.2	22.4	-70.8
						CHANNELS 3  Xrotation Yrotation Zrotation
						JOINT left_shoulder
						{
							OFFSET	-93.9	-5.79999	48.7
							CHANNELS 3  Xrotation Yrotation Zrotation
							JOINT left_elbow
							{
								OFFSET	-291.4	-30.8	15.2
								CHANNELS 3  Xrotation Yrotation Zrotation
								JOINT left_lowarm_twist
								{
									OFFSET	-110.7	-3.89999	13.6
									CHANNELS 3  Xrotation Yrotation Zrotation
									JOINT left_hand
									{
										OFFSET	-110.7	-3.89999	13.6
										CHANNELS 3  Xrotation Yrotation Zrotation
										JOINT left_ee
										{
											OFFSET	-80.8	-5.10001	12.1
											CHANNELS 3  Xrotation Yrotation Zrotation
											End Site
											{
												OFFSET	1	0	0
											}
										}
									}
								}
							}
						}
					}
					JOINT right_clavicle
					{
						OFFSET	43.2	22.4	-70.8
						CHANNELS 3  Xrotation Yrotation Zrotation
						JOINT right_shoulder
						{
							OFFSET	93.9	-5.79999	48.7
							CHANNELS 3  Xrotation Yrotation Zrotation
							JOINT right_elbow
							{
								OFFSET	291.4	-30.8	15.2
								CHANNELS 3  Xrotation Yrotation Zrotation
								JOINT right_lowarm_twist
								{
									OFFSET	110.7	-3.89999	13.6
									CHANNELS 3  Xrotation Yrotation Zrotation
									JOINT right_hand
									{
										OFFSET	110.7	-3.89999	13.6
										CHANNELS 3  Xrotation Yrotation Zrotation
										JOINT right_ee
										{
											OFFSET	80.8	-5.10001	12.1
											CHANNELS 3  Xrotation Yrotation Zrotation
											End Site
											{
												OFFSET	1	0	0
											}
										}
									}
								}
							}
						}
					}
				}
			}
		}
	}
	JOINT left_hip
	{
		OFFSET	-82.8	-127.5	0.300001
		CHANNELS 3  Xrotation Yrotation Zrotation
		JOINT left_knee
		{
			OFFSET	-28.2	-396.7	2.2
			CHANNELS 3  Xrotation Yrotation Zrotation
			JOINT left_ankle
			{
				OFFSET	-11.7	-411.3	35.4
				CHANNELS 3  Xrotation Yrotation Zrotation
				JOINT left_toes
				{
					OFFSET	0	-60	-88.6
					CHANNELS 3  Xrotation Yrotation Zrotation
					JOINT left_foot_ee
					{
						OFFSET	-22.5	-16.5	-42.2
						CHANNELS 3  Xrotation Yrotation Zrotation
						End Site
						{
							OFFSET	1	0	0
						}
					}
				}
			}
		}
	}
	JOINT right_hip
	{
		OFFSET	82.8	-127.5	0.300001
		CHANNELS 3  Xrotation Yrotation Zrotation
		JOINT right_knee
		{
			OFFSET	28.2	-396.7	2.2
			CHANNELS 3  Xrotation Yrotation Zrotation
			JOINT right_ankle
			{
				OFFSET	11.7	-411.3	35.4
				CHANNELS 3  Xrotation Yrotation Zrotation
				JOINT right_toes
				{
					OFFSET	0	-60	-88.6
					CHANNELS 3  Xrotation Yrotation Zrotation
					JOINT right_foot_ee
					{
						OFFSET	22.5	-16.5	-42.2
						CHANNELS 3  Xrotation Yrotation Zrotation
						End Site
						{
							OFFSET	1	0	0
						}
					}
				}
			}
		}
	}
}
MOTION
Frames: 13
Frame Time: 0.02
2868.09396776 712.219 -1616.18648329 11.4024606513 67.0781137278 -16.8901900349 -1.64914 0.311204 2.89116 -1.64449 0.126681 2.90509 -1.63383 -0.568685 2.85174 -1.64516 -0.111368 2.90571 -8.13853 2.88285 0.892546 -8.13958 4.75431 1.51633 -0.0 0.0 -0.0 0.574919 19.6026 3.13737 25.0215 -17.1802 69.9265 0.916855 -24.4264 0.198456 22.1765 0.24125 -2.80494 -1.86163 16.7665 -4.55758 -0.0 0.0 -0.0 7.84543 24.3442 -14.2501 -10.3525 16.2073 -66.779 0.911419 24.2984 -0.196214 17.7427 -0.280316 2.24009 3.3648 14.7416 -16.5245 0.0 0.0 0.0 -7.18112 31.4467 14.9505 -2.28802 0.0874219 0.340229 39.9139 19.4873 -5.00883 -28.3746 0.0 0.0 -0.0 0.0 -0.0 9.43144 20.6155 7.138 -61.2148 2.33257 -8.6579 38.8435 -2.39384 4.76158 -6.05897 0.0 0.0 0.0 0.0 0.0 
2853.72231415 710.568 -1607.72198951 12.957414569 67.6970114925 -18.5160698824 -1.67142 0.208931 2.77908 -1.66712 0.0317375 2.78674 -1.66183 -0.634111 2.71388 -1.67205 -0.197721 2.7799 -8.73484 2.76304 0.531599 -8.73845 4.80358 1.15572 -0.0 0.0 -0.0 0.957155 18.402 3.5992 26.7778 -17.2629 69.6295 0.892528 -23.8515 0.188507 23.36 0.223441 -2.95506 -1.55029 14.9688 -3.48749 -0.0 0.0 -0.0 7.39161 23.9157 -13.2931 -12.0207 16.8568 -67.1815 0.953075 25.2728 -0.213678 17.5884 -0.280888 2.2204 3.39957 15.2015 -16.5416 0.0 0.0 0.0 -8.83464 31.4245 15.5039 -2.73609 0.102946 0.407241 39.8931 20.0313 -5.01935 -29.3763 0.0 0.0 -0.0 0.0 -0.0 13.4589 20.5256 6.34342 -60.5962 2.2647 -8.5908 38.4052 -2.37088 4.72261 -6.78348 0.0 0.0 0.0 0.0 0.0 
2843.95598845 709.784 -1601.75669792 12.3914297512 67.9938091219 -17.8297792759 -1.58932 0.508288 2.72451 -1.58525 0.333958 2.7513 -1.56511 -0.32717 2.75212 -1.57566 0.111409 2.76924 -8.8734 3.54127 0.421862 -8.8809 6.34225 1.23343 -0.0 0.0 -0.0 0.536881 17.1946 2.84451 28.1249 -17.7796 67.9367 0.970502 -25.6758 0.221173 25.1095 0.191444 -3.17625 -1.06081 13.0738 -1.29118 -0.0 0.0 -0.0 7.28198 23.9843 -13.0459 -14.2803 17.2125 -68.2254 0.855345 22.9628 -0.173736 17.0262 -0.282522 2.14861 3.45913 15.5431 -16.7881 0.0 0.0 0.0 -8.62167 29.4343 14.7306 -2.94177 0.109896 0.438043 41.817 20.0829 -5.19508 -30.4967 0.0 0.0 -0.0 0.0 -0.0 16.3941 18.9007 6.20414 -59.2794 2.12268 -8.44558 36.4745 -2.46815 4.54526 -7.35724 0.0 0.0 0.0 0.0 0.0 
2832.14122112 710.184 -1594.03030246 13.0768214471 69.2707803848 -18.2462123559 -1.40261 0.295666 2.75288 -1.39841 0.119962 2.7661 -1.38904 -0.530468 2.71745 -1.39933 -0.0948125 2.76708 -8.91508 3.84639 0.045377 -8.92508 7.17638 0.936568 -0.0 0.0 -0.0 0.294343 16.5564 2.40242 29.0705 -17.7188 67.3144 1.00651 -26.5 0.237006 26.2253 0.167515 -3.31676 -0.697408 11.5899 0.355867 -0.0 0.0 -0.0 7.1852 23.7116 -12.8594 -15.736 17.5429 -69.0213 0.88389 23.6461 -0.185029 16.7018 -0.283144 2.10718 3.51118 16.3973 -16.7249 0.0 0.0 0.0 -10.0311 27.4747 14.4386 -2.91479 0.10899 0.434001 41.9432 20.2257 -5.20981 -31.4319 0.0 0.0 -0.0 0.0 -0.0 20.1287 17.9636 4.49097 -58.8225 2.07419 -8.39444 36.1946 -2.56628 4.51856 -7.76283 0.0 0.0 0.0 0.0 0.0 
2786.33044972 704.099 -1582.47669121 14.9882097244 68.0132772049 -19.6605465907 -1.0759 0.315813 2.56357 -1.07225 0.152102 2.57845 -1.06255 -0.440736 2.54508 -1.07158 -0.0333964 2.58272 -10.0334 4.41182 0.137203 -10.0546 8.21315 1.23556 -0.0 0.0 -0.0 -0.46602 15.0326 1.02281 30.9154 -19.0468 65.0995 1.21281 -30.9958 0.336306 28.0099 0.123565 -3.54048 -0.204587 8.98538 2.41053 -0.0 0.0 -0.0 6.69046 22.4479 -11.8928 -20.3254 16.9711 -69.202 0.728329 19.8391 -0.127371 16.191 -0.283649 2.04194 3.64156 17.0909 -17.281 0.0 0.0 0.0 -14.0767 24.9029 14.7631 -3.73903 0.135788 0.557658 42.2483 19.6755 -5.22311 -32.641 0.0 0.0 -0.0 0.0 -0.0 28.8145 14.9323 2.17693 -53.4765 1.53824 -7.76872 34.9151 -2.47794 4.39658 -8.45852 0.0 0.0 0.0 0.0 0.0 
2787.24778264 704.099 -1578.44676219 15.3775986034 68.5843181211 -20.0796332426 -1.0759 0.315813 2.56357 -1.07225 0.152102 2.57845 -1.06255 -0.440736 2.54508 -1.07158 -0.0333964 2.58272 -10.0334 4.41182 0.137203 -10.0546 8.21315 1.23556 -0.0 0.0 -0.0 -0.46602 15.0326 1.02281 30.9154 -19.0468 65.0995 1.21281 -30.9958 0.336306 28.0099 0.123565 -3.54048 -0.204587 8.98538 2.41053 -0.0 0.0 -0.0 6.69046 22.4479 -11.8928 -20.3254 16.9711 -69.202 0.728329 19.8391 -0.127371 16.191 -0.283649 2.04194 3.64156 17.0909 -17.281 0.0 0.0 0.0 -14.0767 24.9029 14.7631 -3.73903 0.135788 0.557658 42.2483 19.6755 -5.22311 -32.641 0.0 0.0 -0.0 0.0 -0.0 28.8145 14.9323 2.17693 -53.4765 1.53824 -7.76872 34.9151 -2.47794 4.39658 -8.45852 0.0 0.0 0.0 0.0 0.0 
2777.07314087 707.223 -1574.53548329 12.7147282169 67.7547945922 -17.0242082053 -1.10188 0.49095 2.42957 -1.09865 0.335403 2.45587 -1.0814 -0.234904 2.4675 -1.08986 0.157617 2.47364 -10.2695 4.86968 0.975025 -10.2923 8.52209 2.18293 -0.0 0.0 -0.0 -0.735812 15.4478 0.646369 31.4558 -17.9035 64.7846 1.47094 -36.0771 0.479057 28.3074 0.11556 -3.57765 -0.0298443 5.15087 1.95803 -0.0 0.0 -0.0 6.63002 22.1816 -11.7847 -20.7531 17.3244 -69.3465 0.681182 18.6464 -0.111832 16.4705 -0.283445 2.07763 3.53586 16.352 -16.9193 0.0 0.0 0.0 -15.3598 24.8313 15.4665 -1.40117 0.0551523 0.207951 41.7245 19.3806 -5.17004 -33.8639 0.0 0.0 -0.0 0.0 -0.0 29.9738 12.1164 0.853945 -46.782 0.953599 -6.92027 36.4673 -1.97868 4.54672 -8.9241 0.0 0.0 0.0 0.0 0.0 
2759.63104852 702.241 -1576.45731955 13.7661303124 67.3065565966 -18.1640147147 -1.17891 0.362737 2.31225 -1.17596 0.214908 2.33063 -1.16469 -0.327029 2.31757 -1.17219 0.0429872 2.34012 -10.6519 4.78752 1.73976 -10.6681 7.87757 2.92924 -0.0 0.0 -0.0 -0.996988 15.5812 0.249551 32.3521 -18.4931 64.9207 1.49665 -36.5508 0.494282 28.5645 0.108487 -3.60973 -0.0390004 6.8719 2.61051 -0.0 0.0 -0.0 6.43163 21.6434 -11.3996 -21.4686 16.6668 -69.5436 0.648508 17.8098 -0.101611 16.4128 -0.283502 2.07027 3.54909 16.6668 -16.853 0.0 0.0 0.0 -16.6885 23.5062 15.7158 -2.59278 0.0980374 0.385796 41.5441 18.3165 -5.13031 -34.4689 0.0 0.0 -0.0 0.0 -0.0 28.7688 12.1214 -0.143956 -34.8169 0.170363 -5.25924 33.8079 -2.09521 4.2897 -8.78178 0.0 0.0 0.0 0.0 0.0 
2759.41122955 702.241 -1577.45123788 13.6889762822 67.1740517569 -18.0803459099 -1.17891 0.362737 2.31225 -1.17596 0.214908 2.33063 -1.16469 -0.327029 2.31757 -1.17219 0.0429872 2.34012 -10.6519 4.78752 1.73976 -10.6681 7.87757 2.92924 -0.0 0.0 -0.0 -0.996988 15.5812 0.249551 32.3521 -18.4931 64.9207 1.49665 -36.5508 0.494282 28.5645 0.108487 -3.60973 -0.0390004 6.8719 2.61051 -0.0 0.0 -0.0 6.43163 21.6434 -11.3996 -21.4686 16.6668 -69.5436 0.648508 17.8098 -0.101611 16.4128 -0.283502 2.07027 3.54909 16.6668 -16.853 0.0 0.0 0.0 -16.6885 23.5062 15.7158 -2.59278 0.0980374 0.385796 41.5441 18.3165 -5.13031 -34.4689 0.0 0.0 -0.0 0.0 -0.0 28.7688 12.1214 -0.143956 -34.8169 0.170363 -5.25924 33.8079 -2.09521 4.2897 -8.78178 0.0 0.0 0.0 0.0 0.0 
2747.75834185 701.291 -1583.91410725 13.4137120302 65.9553249133 -17.6359690524 -1.31504 0.421757 2.19311 -1.31241 0.281384 2.21548 -1.29905 -0.240988 2.22024 -1.30591 0.112592 2.23043 -10.7881 5.23198 2.55389 -10.7978 8.18571 3.84211 -0.0 0.0 -0.0 -0.957543 16.0979 0.384253 33.1197 -17.8772 64.7694 1.62155 -38.7709 0.570609 28.7291 0.103882 -3.63025 0.0368645 6.04344 2.76446 -0.0 0.0 -0.0 6.52734 21.7571 -11.5983 -21.6357 16.7372 -69.6351 0.599709 16.5457 -0.0871987 16.4938 -0.28342 2.08061 3.48798 16.2801 -16.6223 0.0 0.0 0.0 -17.1599 22.2051 15.5452 -2.43492 0.092569 0.362185 40.5963 18.1329 -5.04198 -35.5272 0.0 0.0 -0.0 0.0 -0.0 26.7428 10.8436 -0.196746 -25.5673 -0.18817 -3.88659 32.0873 -2.05217 4.11632 -8.73383 0.0 0.0 0.0 0.0 0.0 
2734.61946619 700.399 -1589.04897156 13.5762104303 65.9124921575 -18.3995425405 -1.43223 0.416987 2.28904 -1.42936 0.270524 2.31092 -1.41569 -0.278449 2.30998 -1.42312 0.0897614 2.32496 -11.4369 5.54705 3.52887 -11.4346 8.19564 4.90956 -0.0 0.0 -0.0 -1.12835 15.778 0.0692343 33.3324 -18.2027 64.5301 1.73407 -40.6593 0.642514 28.8023 0.101817 -3.63937 0.0837198 5.28287 2.75825 -0.0 0.0 -0.0 6.77821 21.919 -12.1318 -21.803 16.6507 -69.8371 0.546264 15.142 -0.0726062 16.705 -0.283139 2.10759 3.44079 15.8807 -16.4932 0.0 0.0 0.0 -18.3188 20.7698 16.1832 -1.87256 0.0725598 0.2782 40.6535 17.7381 -5.03915 -36.2702 0.0 0.0 -0.0 0.0 -0.0 26.8991 10.1299 -0.310145 -17.238 -0.318293 -2.61623 31.7582 -1.91015 4.08314 -8.64375 0.0 0.0 0.0 0.0 0.0 
2708.66292476 703.589 -1597.01776338 13.2994528286 67.3641495681 -17.8742245254 -1.65637 0.330994 2.39906 -1.65318 0.177711 2.41525 -1.64264 -0.402688 2.38808 -1.6506 -0.0205973 2.42168 -12.0248 6.44345 4.20915 -12.0242 9.51459 5.85429 -0.0 0.0 -0.0 -0.35421 16.2885 1.3572 34.271 -17.5967 65.3178 1.95282 -44.045 0.789947 25.6185 0.180867 -3.24041 0.175598 2.13724 2.06379 -0.0 0.0 -0.0 7.42335 22.22 -13.518 -22.2248 17.0359 -70.266 0.395021 11.072 -0.038287 18.1382 -0.278608 2.29058 2.7149 11.3357 -13.6102 0.0 0.0 0.0 -19.7316 18.2871 15.4234 0.0680414 -0.00280769 -0.0100641 39.9939 16.5214 -4.95693 -39.6012 0.0 0.0 -0.0 0.0 -0.0 28.7951 8.71173 -1.60628 -8.24305 -0.250606 -1.23915 34.8691 -2.05113 4.394 -7.03317 0.0 0.0 0.0 0.0 0.0 
2639.00008097 685.469 -1604.39901663 11.9194802069 69.3866077508 -15.9869171704 -1.90661 0.192901 2.23874 -1.90383 0.0500897 2.24648 -1.89922 -0.49632 2.19156 -1.90589 -0.144066 2.24241 -6.69147 7.08587 -0.481866 -6.68176 13.495 0.922118 -0.0 0.0 -0.0 1.45391 17.4205 4.27806 32.9635 -16.4956 63.9105 2.22057 -47.72 0.982264 22.1671 0.241379 -2.80374 0.428414 -1.81995 2.10474 -0.0 0.0 -0.0 7.79935 21.726 -14.3868 -22.0415 18.1389 -70.5721 0.211794 5.98952 -0.0110803 18.7171 -0.27548 2.36446 1.37584 2.30912 -8.28964 0.0 0.0 0.0 -21.3146 10.6749 13.3428 1.82218 -0.079314 -0.268351 40.2222 11.903 -4.91295 -38.8351 0.0 0.0 -0.0 0.0 -0.0 29.917 6.54171 -4.28955 -5.73141 -0.19319 -0.858022 39.2444 1.1666 4.81999 -1.59955 0.0 0.0 0.0 0.0 0.0 
